<svg xmlns="http://www.w3.org/2000/svg" viewBox="0 0 252.3 274.67"><defs><style>.cls-1{fill:#fff;}</style></defs><g id="Layer_3" data-name="Layer 3"><path class="cls-1" d="M260.92,205.35l70-87.52h0a.25.25,0,0,0,0-.07c.06-.08.12-.15.18-.24s0,0,0,0l.08-.14a2.4,2.4,0,0,0,.11-.23,1.66,1.66,0,0,0,.06-.16,2.25,2.25,0,0,0,.08-.24.85.85,0,0,0,0-.17c0-.07,0-.15.05-.23s0-.12,0-.18,0-.16,0-.23,0-.12,0-.18a1.94,1.94,0,0,0,0-.24l0-.17a1,1,0,0,0-.06-.25,1.24,1.24,0,0,0,0-.16c0-.09-.07-.17-.1-.26l-.05-.11v0L308.93,69.74A3.1,3.1,0,0,0,306.15,68H261.39l-.32,0H261l-.35.07h0l-.34.11h0l-.29.14-.06,0-.23.15-.1.07-.16.13a.86.86,0,0,0-.14.13l-.1.1a1.54,1.54,0,0,0-.17.19h0l-53.5,66.88L152,69.18h0l-.15-.17-.12-.13-.15-.13-.15-.12-.16-.11-.17-.1-.18-.09-.16-.08-.2-.07-.17-.05-.2,0-.18,0-.2,0h-45A3.12,3.12,0,0,0,102,69.73L79.66,114.48v0a.76.76,0,0,1,0,.11,2,2,0,0,0-.11.26c0,.06,0,.11,0,.16l-.06.25a.88.88,0,0,0,0,.17l0,.24v.18a1.77,1.77,0,0,0,0,.23c0,.06,0,.12,0,.18s0,.15,0,.23a1.36,1.36,0,0,1,0,.17c0,.08,0,.16.08.23l.06.17.12.23s0,.09.07.14l0,0a2.07,2.07,0,0,0,.17.24l0,.07h0l70,87.52L80,292.89a3.11,3.11,0,0,0-.36,3.33L102,341a4,4,0,0,0,.2.35h0a2.51,2.51,0,0,0,.25.32l.09.1.2.19.13.1.2.15.14.08a1.55,1.55,0,0,0,.22.12l.15.07.23.08.16.05.25.06.16,0,.07,0h45.07a3.12,3.12,0,0,0,2.42-1.16l53.5-66.88L259,341.52a3.14,3.14,0,0,0,2.43,1.16h44.74a1.83,1.83,0,0,0,.33,0h.06l.17,0,.24-.05.17-.05.22-.08.16-.07.21-.11.15-.09.2-.15.13-.1.19-.19.1-.1a3.92,3.92,0,0,0,.25-.32h0a2.43,2.43,0,0,0,.2-.35l22.37-44.74a3.11,3.11,0,0,0-.35-3.33Zm62.57-92.59H285.7L266.44,74.23h37.79ZM260.8,76.86l19.31,38.62-45.55,56.93L209.46,141ZM106.74,74.23h37.79l-19.27,38.53H87.47Zm19,44.74,46.73,58.42-18.39,23L88.91,119Zm42.48,73.68,10.66-13.32a3.74,3.74,0,0,0,.32-.49c0-.06,0-.12.08-.19a2,2,0,0,0,.13-.34,1.8,1.8,0,0,0,.06-.22,3.43,3.43,0,0,0,.06-.34c0-.07,0-.15,0-.22s0-.1,0-.14a1872368131110,1872368131110,0,0,0,0-.42,2.29,2.29,0,0,0-.07-.36c0-.07,0-.13-.05-.19a3.79,3.79,0,0,0-.18-.42.42.42,0,0,0,0-.1,3.52,3.52,0,0,0-.3-.45l0,0h0l-47.94-59.92,19.31-38.62,80.42,100.53L105.42,333.84,86.11,295.22ZM148.06,336.47H111.28L285.27,119h36.78L254.51,203.4h0l-29.08,36.35-22.37,28Zm114.84,0-53.44-66.8,18.39-23,10.84,13.54,61,76.25Zm42.64-2.63L231.83,241.7,247.61,222l9.33-11.65,67.91,84.89Z" transform="translate(-79.34 -68.02)"/></g></svg>